<svg width="96" height="96" viewBox="0 0 96 96" fill="none" xmlns="http://www.w3.org/2000/svg">
<g clip-path="url(#clip0_2112_2370)">
<rect width="96" height="96" fill="#FF695B"/>
<mask id="mask0_2112_2370" style="mask-type:alpha" maskUnits="userSpaceOnUse" x="17" y="17" width="62" height="62">
<path d="M17.28 17.28H78.72V78.72H17.28V17.28Z" fill="#D9D9D9"/>
</mask>
<g mask="url(#mask0_2112_2370)">
<path fill-rule="evenodd" clip-rule="evenodd" d="M33.114 60.9039C32.7768 60.5438 33.0316 59.9579 33.5248 59.9555C38.5729 59.9303 43.4215 61.9246 46.9911 65.4941L47.6879 66.191C48.0206 66.5236 48.5599 66.5236 48.8925 66.191L49.6224 65.4611C53.2187 61.8648 58.0891 59.8332 63.1749 59.8079C63.6785 59.8054 63.9442 60.4007 63.6029 60.7708C60.6296 63.9959 57.4731 67.0805 54.3104 70.149C50.9717 73.3882 45.6112 73.3857 42.2811 70.1377C39.1732 67.1065 36.0715 64.0628 33.114 60.9039ZM63.2204 48.3622C62.7459 50.626 64.2589 53.2645 66.5718 53.253C67.7723 53.2471 68.8667 52.5159 69.2042 51.3639C71.3712 43.9651 69.5367 35.6432 63.701 29.8074C55.1899 21.2963 41.3906 21.2963 32.8795 29.8074C26.9889 35.6979 25.1752 44.1215 27.4383 51.5718C27.7872 52.7204 28.8888 53.4405 30.0892 53.4345C32.4022 53.423 33.8888 50.7694 33.3919 48.5104C32.3109 43.5967 33.6812 38.2522 37.5027 34.4307C43.4605 28.4729 53.12 28.4729 59.0777 34.4307C62.8609 38.2138 64.2418 43.4895 63.2204 48.3622ZM43.8559 37.5979C45.0587 36.9061 46.3629 37.9447 46.3629 39.3323L46.363 50.9867C46.363 52.3743 45.0587 53.4129 43.8559 52.7211C43.2043 52.3464 42.5909 51.8807 42.0341 51.3238C38.6296 47.9194 38.6296 42.3997 42.0341 38.9952C42.5909 38.4384 43.2043 37.9726 43.8559 37.5979ZM52.326 52.8407C51.1208 53.4889 49.85 52.451 49.85 51.0825V39.2365C49.85 37.8681 51.1208 36.8301 52.326 37.4783C53.0577 37.8719 53.745 38.3775 54.3626 38.9952C57.7671 42.3997 57.7671 47.9194 54.3626 51.3238C53.745 51.9415 53.0577 52.4471 52.326 52.8407Z" fill="#FFF7F7"/>
</g>
</g>
<defs>
<clipPath id="clip0_2112_2370">
<rect width="96" height="96" fill="white"/>
</clipPath>
</defs>
</svg>
