<svg width="8" height="14" viewBox="0 0 8 14" fill="none" xmlns="http://www.w3.org/2000/svg">
<g id="elements">
<path id="Icon" d="M7.44471 1.60378C7.28334 1.72566 6.8016 2.08957 6.52389 2.3063C5.96767 2.74037 5.22858 3.33348 4.49169 3.97329C3.75107 4.61633 3.02978 5.29184 2.49954 5.89195C2.23366 6.19287 2.03162 6.4572 1.90013 6.67533C1.77645 6.88048 1.75073 7.00167 1.75073 7.00167C1.75073 7.00167 1.77645 7.11929 1.90012 7.32443C2.03162 7.54256 2.23365 7.8069 2.49953 8.10781C3.02978 8.70792 3.75108 9.38343 4.4917 10.0265C5.2286 10.6663 5.9677 11.2594 6.52392 11.6935C6.80163 11.9102 7.2827 12.2736 7.44407 12.3955C7.77759 12.6411 7.84953 13.1111 7.6039 13.4446C7.35826 13.7782 6.88877 13.8494 6.55524 13.6038L6.5527 13.6019C6.38345 13.474 5.88443 13.0971 5.60108 12.876C5.0323 12.4321 4.27139 11.8217 3.50829 11.1591C2.74891 10.4998 1.97021 9.77414 1.37546 9.10102C1.07884 8.76532 0.812122 8.42503 0.615496 8.09886C0.43128 7.79328 0.249997 7.40639 0.25 6.99988C0.250003 6.59337 0.431287 6.20648 0.615502 5.9009C0.812128 5.57474 1.07884 5.23445 1.37546 4.89875C1.97021 4.22563 2.7489 3.49996 3.50827 2.84064C4.27137 2.17809 5.03226 1.56766 5.60104 1.12378C5.88459 0.902495 6.38362 0.525572 6.55253 0.397993L6.55472 0.396341C6.88824 0.150706 7.35821 0.221602 7.60385 0.555123C7.84947 0.888633 7.77821 1.35814 7.44471 1.60378Z" fill="#0D0D0D"/>
</g>
</svg>
