<svg width="62" height="62" viewBox="0 0 62 62" fill="none" xmlns="http://www.w3.org/2000/svg">
<g clip-path="url(#clip0_2065_2289)">
<mask id="mask0_2065_2289" style="mask-type:alpha" maskUnits="userSpaceOnUse" x="0" y="0" width="62" height="62">
<path d="M0 0H61.44V61.44H0V0Z" fill="#D9D9D9"/>
</mask>
<g mask="url(#mask0_2065_2289)">
<path fill-rule="evenodd" clip-rule="evenodd" d="M15.8339 43.6238C15.4967 43.2637 15.7516 42.6778 16.2448 42.6754C21.2929 42.6502 26.1414 44.6445 29.711 48.214L30.4079 48.9109C30.7406 49.2435 31.2799 49.2435 31.6125 48.9109L32.3423 48.181C35.9387 44.5847 40.8091 42.5531 45.8949 42.5278C46.3984 42.5253 46.6642 43.1206 46.3229 43.4908C43.3495 46.7158 40.1931 49.8004 37.0304 52.8689C33.6917 56.1082 28.3312 56.1057 25.001 52.8576C21.8932 49.8264 18.7915 46.7827 15.8339 43.6238ZM45.9404 31.0821C45.4659 33.3459 46.9789 35.9844 49.2918 35.973C50.4922 35.967 51.5867 35.2359 51.9242 34.0838C54.0911 26.685 52.2567 18.3631 46.4209 12.5273C37.9098 4.01619 24.1105 4.01619 15.5994 12.5273C9.7089 18.4179 7.89519 26.8414 10.1582 34.2917C10.5071 35.4403 11.6088 36.1604 12.8092 36.1544C15.1222 36.143 16.6087 33.4893 16.1118 31.2303C15.0309 26.3166 16.4011 20.9721 20.2227 17.1506C26.1804 11.1928 35.8399 11.1928 41.7977 17.1506C45.5809 20.9337 46.9617 26.2094 45.9404 31.0821ZM26.5758 20.3178C27.7787 19.6261 29.0829 20.6646 29.0829 22.0522L29.083 33.7067C29.083 35.0942 27.7787 36.1328 26.5758 35.441C25.9243 35.0663 25.3109 34.6006 24.754 34.0437C21.3496 30.6393 21.3496 25.1196 24.754 21.7151C25.3109 21.1583 25.9243 20.6925 26.5758 20.3178ZM35.046 35.5606C33.8407 36.2088 32.57 35.1709 32.57 33.8024V21.9564C32.57 20.588 33.8407 19.55 35.046 20.1983C35.7776 20.5918 36.465 21.0974 37.0826 21.7151C40.4871 25.1196 40.4871 30.6393 37.0826 34.0437C36.465 34.6614 35.7776 35.167 35.046 35.5606Z" fill="#FFF7F7"/>
</g>
</g>
<defs>
<clipPath id="clip0_2065_2289">
<rect width="62" height="62" fill="white"/>
</clipPath>
</defs>
</svg>
