<svg width="393" height="116" viewBox="0 0 393 116" fill="none" xmlns="http://www.w3.org/2000/svg">
<g clip-path="url(#clip0_2025_556)">
<mask id="mask0_2025_556" style="mask-type:alpha" maskUnits="userSpaceOnUse" x="53" y="27" width="63" height="62">
<path d="M53.7798 27.2799H115.22V88.7199H53.7798V27.2799Z" fill="#D9D9D9"/>
</mask>
<g mask="url(#mask0_2025_556)">
<path fill-rule="evenodd" clip-rule="evenodd" d="M69.614 70.9038C69.2768 70.5437 69.5316 69.9578 70.0248 69.9553C75.0729 69.9302 79.9215 71.9244 83.4911 75.494L84.1879 76.1908C84.5206 76.5235 85.0599 76.5235 85.3925 76.1908L86.1224 75.461C89.7187 71.8647 94.5891 69.8331 99.6749 69.8078C100.178 69.8053 100.444 70.4006 100.103 70.7707C97.1296 73.9957 93.9731 77.0804 90.8104 80.1488C87.4717 83.3881 82.1112 83.3856 78.7811 80.1376C75.6732 77.1064 72.5715 74.0626 69.614 70.9038ZM99.7204 58.3621C99.2459 60.6259 100.759 63.2644 103.072 63.2529C104.272 63.2469 105.367 62.5158 105.704 61.3638C107.871 53.965 106.037 45.6431 100.201 39.8073C91.6899 31.2962 77.8906 31.2962 69.3795 39.8073C63.4889 45.6978 61.6752 54.1213 63.9383 61.5717C64.2872 62.7203 65.3888 63.4404 66.5892 63.4344C68.9022 63.4229 70.3888 60.7692 69.8919 58.5102C68.8109 53.5965 70.1812 48.252 74.0027 44.4305C79.9605 38.4727 89.62 38.4727 95.5777 44.4305C99.3609 48.2137 100.742 53.4894 99.7204 58.3621ZM80.3559 47.5978C81.5587 46.906 82.8629 47.9446 82.8629 49.3322L82.863 60.9866C82.863 62.3742 81.5587 63.4128 80.3559 62.721C79.7043 62.3463 79.0909 61.8805 78.5341 61.3237C75.1296 57.9192 75.1296 52.3995 78.5341 48.9951C79.0909 48.4382 79.7043 47.9725 80.3559 47.5978ZM88.826 62.8406C87.6208 63.4888 86.35 62.4508 86.35 61.0824V49.2364C86.35 47.8679 87.6208 46.83 88.826 47.4782C89.5577 47.8718 90.245 48.3774 90.8626 48.9951C94.2671 52.3995 94.2671 57.9192 90.8626 61.3237C90.245 61.9414 89.5577 62.447 88.826 62.8406Z" fill="#FFF7F7"/>
</g>
</g>
<path d="M324.269 70.0203C325.834 70.0493 326.616 70.8463 326.616 72.4114C326.616 74.0344 325.819 74.8459 324.225 74.8459L311.14 74.672C310.357 74.643 309.792 74.3967 309.444 73.9329C309.096 73.4692 308.922 72.9186 308.922 72.281C308.922 71.4695 309.14 70.8608 309.575 70.4551C310.009 70.0493 310.531 69.8465 311.14 69.8465L315.183 69.8899C315.588 63.311 315.82 56.3262 315.878 48.9358L312.27 49.1966C311.574 49.2836 311.067 49.327 310.748 49.327C310.111 49.327 309.604 49.1097 309.227 48.6749C308.879 48.2402 308.705 47.6461 308.705 46.8925C308.705 46.11 308.893 45.5448 309.27 45.1971C309.647 44.8203 310.169 44.5884 310.835 44.5015C311.386 44.4145 312.531 44.3276 314.27 44.2407C316.009 44.1537 317.733 44.1102 319.443 44.1102C321.008 44.1102 322.689 44.1972 324.486 44.3711C325.181 44.429 325.703 44.6609 326.051 45.0666C326.428 45.4724 326.616 46.0231 326.616 46.7186C326.616 47.4432 326.428 48.0228 326.051 48.4576C325.674 48.8923 325.08 49.0952 324.269 49.0662C323.515 49.0082 322.486 48.9648 321.182 48.9358C321.124 57.3696 320.907 64.3833 320.53 69.9769L324.269 70.0203Z" fill="#FFF7F7"/>
<path d="M308.159 72.4984C308.246 72.7592 308.289 72.9911 308.289 73.1939C308.289 73.9185 307.985 74.4836 307.377 74.8894C306.797 75.2662 306.101 75.4545 305.29 75.4545C304.652 75.4545 304.102 75.3241 303.638 75.0633C303.174 74.8024 302.87 74.4112 302.725 73.8895L301.073 67.8902L291.031 67.8467C290.828 68.5423 290.625 69.2089 290.422 69.8465C290.248 70.4551 290.089 71.0203 289.944 71.5419L289.292 73.7591C289.118 74.3097 288.799 74.7155 288.335 74.9763C287.9 75.2662 287.379 75.4111 286.77 75.4111C285.959 75.4111 285.249 75.2082 284.64 74.8024C284.06 74.3967 283.771 73.8605 283.771 73.1939C283.771 73.049 283.799 72.8027 283.857 72.4549C283.857 72.4549 285.915 66.2817 290.031 53.9352L291.552 49.2836C292.161 47.3997 292.827 46.0521 293.552 45.2406C294.277 44.4291 295.218 44.0233 296.378 44.0233C297.508 44.0233 298.407 44.3856 299.073 45.1101C299.74 45.8347 300.363 47.0954 300.942 48.8923C302.189 52.66 303.652 57.3986 305.333 63.1081H306.551C307.159 63.1081 307.637 63.311 307.985 63.7167C308.333 64.1225 308.507 64.7166 308.507 65.4991C308.507 67.1222 308 67.9337 306.985 67.9337H306.768L308.159 72.4984ZM299.725 63.0212C298.856 59.7752 298.102 57.0798 297.465 54.9351C297.407 54.7322 297.349 54.5584 297.291 54.4134C297.233 54.2685 297.189 54.1236 297.16 53.9787C296.928 53.1672 296.74 52.5731 296.595 52.1963C296.45 51.8195 296.305 51.6312 296.16 51.6312C296.015 51.6312 295.871 51.8195 295.726 52.1963C295.581 52.5731 295.436 53.0368 295.291 53.5875C295.146 54.1671 295.045 54.5439 294.987 54.7178L292.509 62.9777L299.725 63.0212Z" fill="#FFF7F7"/>
<path d="M272.651 75.3241C270.101 75.3241 267.927 74.8314 266.13 73.846C264.363 72.8316 263.029 71.4694 262.131 69.7595C261.232 68.0205 260.783 66.0787 260.783 63.9341C260.783 61.7894 261.276 59.862 262.261 58.1521C263.276 56.4132 264.652 55.0655 266.391 54.1091C268.159 53.1237 270.144 52.631 272.347 52.631C274.347 52.631 276.144 53.0222 277.738 53.8048C279.332 54.5873 280.593 55.7031 281.52 57.1522C282.447 58.6013 282.911 60.2823 282.911 62.1951C282.911 63.3254 282.723 64.1369 282.346 64.6296C281.998 65.0933 281.332 65.3252 280.346 65.3252L265.435 65.4556C265.435 66.2671 265.71 67.1076 266.261 67.9771C266.812 68.8465 267.623 69.5856 268.695 70.1942C269.768 70.7739 271.028 71.0637 272.478 71.0637C273.463 71.0637 274.289 70.9478 274.956 70.7159C275.651 70.4551 276.216 70.1507 276.651 69.803C277.086 69.4552 277.593 68.977 278.173 68.3683C278.607 67.9336 279.085 67.7162 279.607 67.7162C280.158 67.7162 280.68 67.9336 281.172 68.3683C281.694 68.8031 281.955 69.2958 281.955 69.8464C281.955 70.2522 281.795 70.7014 281.477 71.1941C280.781 72.2375 279.723 73.1939 278.303 74.0633C276.912 74.9038 275.028 75.3241 272.651 75.3241ZM277.999 61.8473C278.231 61.8473 278.375 61.8039 278.433 61.7169C278.52 61.63 278.564 61.4706 278.564 61.2387C278.564 59.9055 277.97 58.8042 276.781 57.9347C275.593 57.0653 274.115 56.6305 272.347 56.6305C270.985 56.6305 269.768 56.9348 268.695 57.5435C267.652 58.1231 266.84 58.8477 266.261 59.7171C265.71 60.5576 265.435 61.3112 265.435 61.9777L277.999 61.8473Z" fill="#FFF7F7"/>
<path d="M256.837 75.0632C254.866 74.8893 253.098 74.8023 251.533 74.8023C250.171 74.8023 248.418 74.8603 246.273 74.9762C245.143 75.0632 244.215 75.1066 243.491 75.1066C241.114 75.1066 239.926 74.44 239.926 73.1069C239.926 72.4403 240.23 71.8027 240.839 71.194C245.969 65.8323 250.461 61.1952 254.315 57.2826C253.968 57.2826 253.62 57.297 253.272 57.326C252.953 57.355 252.649 57.384 252.359 57.413C250.388 57.5579 249.113 57.6303 248.534 57.6303C247.635 57.6303 246.708 57.5869 245.751 57.4999C244.795 57.413 244.027 57.3115 243.447 57.1956C242.027 56.8768 241.317 56.1233 241.317 54.935C241.317 54.2974 241.491 53.7757 241.839 53.37C242.186 52.9352 242.694 52.7613 243.36 52.8483C246.49 53.1961 248.954 53.37 250.751 53.37C251.939 53.37 253.46 53.283 255.315 53.1091C256.88 52.9932 257.924 52.9352 258.445 52.9352C259.605 52.9352 260.387 53.0946 260.793 53.4134C261.228 53.7032 261.445 54.1525 261.445 54.7611C261.445 55.6885 261.039 56.5725 260.228 57.413L257.011 60.6735C253.504 64.1803 250.2 67.5278 247.099 70.7158L248.664 70.6723C251.011 70.5854 252.33 70.5419 252.62 70.5419C254.852 70.5419 256.808 70.6723 258.489 70.9332C259.619 71.1361 260.184 71.8171 260.184 72.9764C260.184 73.643 259.981 74.1937 259.576 74.6284C259.199 75.0342 258.619 75.2081 257.837 75.1501L256.837 75.0632Z" fill="#FFF7F7"/>
<path d="M235.648 51.6312C234.605 51.6312 233.75 51.3123 233.083 50.6747C232.417 50.0081 232.083 49.1677 232.083 48.1533C232.083 47.1389 232.417 46.3129 233.083 45.6753C233.75 45.0087 234.619 44.6754 235.692 44.6754C236.706 44.6754 237.547 45.0087 238.213 45.6753C238.88 46.3129 239.213 47.1244 239.213 48.1098C239.213 49.1242 238.88 49.9647 238.213 50.6313C237.547 51.2979 236.692 51.6312 235.648 51.6312ZM234.996 74.7155C234.214 74.7155 233.562 74.5271 233.04 74.1503C232.547 73.7446 232.315 73.2084 232.344 72.5418L232.692 55.6742C232.721 54.9786 232.982 54.4424 233.475 54.0657C233.967 53.6889 234.605 53.5005 235.387 53.5005C236.199 53.5005 236.851 53.7034 237.344 54.1091C237.865 54.4859 238.112 55.0366 238.083 55.7611L237.735 72.5418C237.706 73.2084 237.431 73.7446 236.909 74.1503C236.416 74.5271 235.779 74.7155 234.996 74.7155Z" fill="#FFF7F7"/>
<path d="M226.609 74.5849C225.826 74.5849 225.189 74.382 224.696 73.9763C224.232 73.5416 224.001 72.9909 224.001 72.3243L223.74 42.8494C223.74 42.1538 223.986 41.6031 224.479 41.1974C225 40.7627 225.667 40.5453 226.479 40.5453C227.261 40.5453 227.884 40.7482 228.348 41.1539C228.841 41.5597 229.087 42.1103 229.087 42.8059L229.304 72.3243C229.304 73.0199 229.043 73.5705 228.522 73.9763C228 74.382 227.363 74.5849 226.609 74.5849Z" fill="#FFF7F7"/>
<path d="M221.417 70.8029C221.909 70.8898 222.286 71.0782 222.547 71.368C222.837 71.6289 222.982 72.1071 222.982 72.8027C222.982 73.4113 222.822 73.9185 222.504 74.3242C222.185 74.73 221.764 74.9328 221.243 74.9328C219.997 74.9328 219.055 74.7734 218.417 74.4546C217.779 74.1358 217.214 73.5417 216.722 72.6722C215.504 74.4981 213.302 75.4111 210.114 75.4111C206.781 75.4111 204.288 74.4402 202.636 72.4983C200.984 70.5276 200.158 67.9481 200.158 64.7601C200.158 62.6444 200.578 60.7316 201.419 59.0216C202.288 57.3117 203.52 55.964 205.114 54.9786C206.708 53.9932 208.549 53.5005 210.635 53.5005C211.824 53.5005 212.896 53.7468 213.852 54.2395C214.809 54.7033 215.533 55.3264 216.026 56.1089L216.156 55.1959C216.185 54.7902 216.374 54.4424 216.722 54.1526C217.069 53.8628 217.62 53.7179 218.374 53.7179C219.243 53.7179 219.866 53.9207 220.243 54.3265C220.649 54.7322 220.808 55.2394 220.721 55.848C220.547 56.7755 220.359 58.413 220.156 60.7605C220.069 61.9198 220.026 63.4124 220.026 65.2383V67.2815C220.026 68.4988 220.098 69.3828 220.243 69.9334C220.388 70.4551 220.779 70.7449 221.417 70.8029ZM214.896 67.2381C214.925 65.9918 214.939 64.1804 214.939 61.8039C214.939 60.4707 214.504 59.4418 213.635 58.7173C212.794 57.9927 211.824 57.6305 210.722 57.6305C209.128 57.6305 207.853 58.326 206.897 59.7172C205.94 61.1083 205.462 62.7748 205.462 64.7166C205.462 66.6005 205.882 68.1655 206.723 69.4117C207.563 70.658 208.795 71.2811 210.418 71.2811C211.751 71.2811 212.823 70.9333 213.635 70.2377C214.446 69.5422 214.867 68.5423 214.896 67.2381Z" fill="#FFF7F7"/>
<path d="M187.976 74.9763C185.773 74.9763 183.831 74.5271 182.15 73.6286C180.498 72.7012 179.223 71.4404 178.325 69.8464C177.426 68.2234 176.977 66.383 176.977 64.3253C176.977 62.1806 177.441 60.2243 178.368 58.4564C179.325 56.6595 180.658 55.2394 182.368 54.196C184.107 53.1527 186.092 52.631 188.324 52.631C190.7 52.631 192.758 53.2106 194.497 54.3699C196.265 55.5292 197.511 56.9783 198.236 58.7172C198.409 59.152 198.496 59.5432 198.496 59.891C198.496 60.7025 197.931 61.2532 196.801 61.543C196.511 61.63 196.221 61.6734 195.931 61.6734C195.439 61.6734 195.033 61.543 194.714 61.2822C194.395 60.9924 194.062 60.5576 193.714 59.978C193.222 59.0505 192.555 58.2825 191.715 57.6739C190.874 57.0653 189.845 56.7609 188.628 56.7609C187.382 56.7609 186.28 57.1087 185.324 57.8043C184.368 58.4709 183.614 59.3838 183.063 60.5431C182.542 61.7024 182.281 62.9776 182.281 64.3688C182.281 66.3396 182.802 67.9191 183.846 69.1074C184.918 70.2667 186.469 70.8463 188.497 70.8463C190.41 70.8463 191.845 70.3536 192.801 69.3682C193.787 68.3538 194.294 67.209 194.323 65.9338C194.323 65.4991 194.526 65.1223 194.932 64.8035C195.337 64.4847 195.873 64.3253 196.54 64.3253C197.352 64.3253 197.975 64.4847 198.409 64.8035C198.844 65.1223 199.062 65.673 199.062 66.4555C199.062 67.8467 198.67 69.1943 197.888 70.4985C197.134 71.8027 195.931 72.8751 194.279 73.7156C192.627 74.556 190.526 74.9763 187.976 74.9763Z" fill="#FFF7F7"/>
<path d="M164.758 75.0633C161.222 75.0633 158.368 74.1358 156.194 72.281C154.049 70.4261 152.977 67.7163 152.977 64.1515C152.977 61.8619 153.441 59.8476 154.368 58.1087C155.296 56.3408 156.629 54.9641 158.368 53.9787C160.107 52.9933 162.15 52.5006 164.497 52.5006C166.816 52.5006 168.874 52.9933 170.671 53.9787C172.497 54.9641 173.902 56.3552 174.888 58.1521C175.902 59.9201 176.409 61.9778 176.409 64.3254C176.409 67.7742 175.351 70.4261 173.236 72.281C171.12 74.1358 168.294 75.0633 164.758 75.0633ZM164.671 70.9333C166.642 70.9333 168.193 70.3826 169.323 69.2813C170.482 68.151 171.062 66.4845 171.062 64.2819C171.062 62.0792 170.497 60.2534 169.367 58.8042C168.236 57.3551 166.671 56.6306 164.671 56.6306C162.73 56.6306 161.179 57.3117 160.02 58.6738C158.86 60.036 158.281 61.8619 158.281 64.1515C158.281 66.4411 158.86 68.151 160.02 69.2813C161.208 70.3826 162.759 70.9333 164.671 70.9333Z" fill="#FFF7F7"/>
<path d="M141.716 75.063C138.963 75.063 136.949 74.7732 135.674 74.1936C134.398 73.6139 133.543 72.643 133.109 71.2809C132.703 69.8897 132.5 67.7595 132.5 64.8903C132.5 61.6153 132.645 58.5721 132.935 55.7609C133.254 52.9496 133.703 49.805 134.282 46.3272C134.369 45.7475 134.659 45.2838 135.152 44.936C135.645 44.5592 136.297 44.3708 137.108 44.3708C137.92 44.3708 138.528 44.5737 138.934 44.9795C139.369 45.3852 139.586 45.9214 139.586 46.588C139.586 46.9068 139.572 47.1387 139.543 47.2836C138.876 51.3411 138.383 54.6016 138.065 57.0651C137.775 59.5286 137.63 62.1804 137.63 65.0207C137.63 66.5857 137.702 67.745 137.847 68.4986C138.021 69.2231 138.34 69.7303 138.804 70.0201C139.296 70.3099 140.064 70.4549 141.108 70.4549C143.252 70.4549 146.368 70.0636 150.454 69.2811C150.57 69.2521 150.759 69.2376 151.02 69.2376C151.686 69.2376 152.193 69.4695 152.541 69.9332C152.918 70.3969 153.106 70.962 153.106 71.6286C153.106 72.9039 152.164 73.7299 150.281 74.1066C148.687 74.4254 147.252 74.6718 145.977 74.8457C144.702 74.9906 143.281 75.063 141.716 75.063Z" fill="#FFF7F7"/>
<defs>
<clipPath id="clip0_2025_556">
<rect width="96" height="96" fill="white" transform="translate(36.5 10)"/>
</clipPath>
</defs>
</svg>
